# xmcd CD database file
#
# Track frame offsets:
#	27290
#	40832
#	54307
#	68217
#	80755
#	94342
#	109067
#	123285
#	137502
#	150780
#	164562
#	177790
#	192002
#	206825
#	221487
#	237985
#	252307
#	264897
#
# Disc length: 3690 seconds
#
# Revision: 2
# Processed by: cddbd v1.5.1PL0 Copyright (c) Steve Scherf et al.
# Submitted via: CDex 1.51
#
DISCID=fe0cff12
DTITLE=Charley Patton - ''Screamin' and Hollerin' the Blues'' - by The Masked Marvel - disc 2
DYEAR=2001
DGENRE=Blues
TTITLE0=High Water Everywhere  (part 1)
TTITLE1=Hight Water Everywhere  (part 2)
TTITLE2=I shall Not be Moved
TTITLE3=Rattlesnake Blues
TTITLE4=Going to Move to Alabama
TTITLE5=Hammer Blues  (take 2)
TTITLE6=Joe Kirby
TTITLE7=Frankie and Albert
TTITLE8=Devil sent the Rain Blues
TTITLE9=Magnolia Blues
TTITLE10=Runnin' Wild Blues
TTITLE11=Some Happy Day
TTITLE12=Mean Black Moan
TTITLE13=Green River Blues
TTITLE14=That's My Man - Edith North Johnson
TTITLE15=Honey Dripper Blues N°. 2 - Edith North Johnson
TTITLE16=Eight Hour Woman - Edith North Johnson
TTITLE17=Nickel's Worth of Liver Blues N°. 2 - Edith North Johnson
EXTD=Revenant 212\nTracks 1-14, Charley Patton, Oct. 1929\nTracks 15-18, Edith North Johnson\n \nTwo "hidden" Patton tracks:\n  -2: Hammer Blues (take 1]\n  -1: I Shall Not Be Moved (take 1) YEAR: 2001
EXTT0=
EXTT1=
EXTT2=
EXTT3=
EXTT4=
EXTT5=
EXTT6=
EXTT7=
EXTT8=
EXTT9=
EXTT10=
EXTT11=
EXTT12=
EXTT13=
EXTT14=
EXTT15=
EXTT16=
EXTT17=
PLAYORDER=
